<svg width="18" height="18" viewBox="0 0 18 18" fill="none" xmlns="http://www.w3.org/2000/svg">
<path d="M8.99992 0.332733C10.1492 0.332733 11.2514 0.789279 12.064 1.60194C12.8767 2.41459 13.3333 3.51679 13.3333 4.66607C13.3333 5.81534 12.8767 6.91754 12.064 7.7302C11.2514 8.54285 10.1492 8.9994 8.99992 8.9994C7.85065 8.9994 6.74845 8.54285 5.93579 7.7302C5.12313 6.91754 4.66658 5.81534 4.66658 4.66607C4.66658 3.51679 5.12313 2.41459 5.93579 1.60194C6.74845 0.789279 7.85065 0.332733 8.99992 0.332733ZM8.99992 11.1661C13.7883 11.1661 17.6666 13.1052 17.6666 15.4994V17.6661H0.333252V15.4994C0.333252 13.1052 4.21158 11.1661 8.99992 11.1661Z" fill="#666670"/>
</svg>
